<svg xmlns="http://www.w3.org/2000/svg" viewBox="0 0 494.13 988.67"><defs><style>.cls-1{fill:#fff;}.cls-1,.cls-2,.cls-3{stroke:#231815;}.cls-1,.cls-2,.cls-3,.cls-4{stroke-miterlimit:10;stroke-width:2px;}.cls-2,.cls-3,.cls-4{fill:none;}.cls-3{stroke-dasharray:46 10 1 10;}.cls-4{stroke:#98a8a8;}.cls-5{font-size:31.28px;fill:#231815;font-family:AdobeSongStd-Light-GBpc-EUC-H, Adobe Song Std;}</style></defs><title>cooperation</title><g id="图层_1" data-name="图层 1"><rect class="cls-1" x="110.13" y="918.84" width="110.83" height="36.94"/><rect class="cls-1" x="119.37" y="911.45" width="92.36" height="7.39"/><path class="cls-1" d="M124.3,800.62H221a0,0,0,0,1,0,0V911.45a0,0,0,0,1,0,0H110.13a0,0,0,0,1,0,0V814.79A14.17,14.17,0,0,1,124.3,800.62Z"/><path class="cls-1" d="M233.9,800.62H344.73a0,0,0,0,1,0,0v96.66a14.17,14.17,0,0,1-14.17,14.17H233.9a0,0,0,0,1,0,0V800.62A0,0,0,0,1,233.9,800.62Z"/><path class="cls-1" d="M110.13,512.45H221a0,0,0,0,1,0,0V623.28a0,0,0,0,1,0,0H124.3a14.17,14.17,0,0,1-14.17-14.17V512.45A0,0,0,0,1,110.13,512.45Z"/><path class="cls-1" d="M233.9,512.45h96.66a14.17,14.17,0,0,1,14.17,14.17v96.66a0,0,0,0,1,0,0H233.9a0,0,0,0,1,0,0V512.45A0,0,0,0,1,233.9,512.45Z"/><path class="cls-1" d="M233.9,224.28H344.73a0,0,0,0,1,0,0v96.66a14.17,14.17,0,0,1-14.17,14.17H233.9a0,0,0,0,1,0,0V224.28A0,0,0,0,1,233.9,224.28Z"/><path class="cls-1" d="M248.07,100.51h96.66a0,0,0,0,1,0,0V211.35a0,0,0,0,1,0,0H233.9a0,0,0,0,1,0,0V114.69A14.17,14.17,0,0,1,248.07,100.51Z"/><path class="cls-1" d="M357.66,100.51h96.66a14.17,14.17,0,0,1,14.17,14.17v82.49a14.17,14.17,0,0,1-14.17,14.17H357.66a0,0,0,0,1,0,0V100.51A0,0,0,0,1,357.66,100.51Z"/><line class="cls-2" x1="250.52" y1="567.87" x2="250.52" y2="856.03"/><line class="cls-2" x1="328.11" y1="567.87" x2="328.11" y2="856.03"/><line class="cls-2" x1="250.52" y1="211.35" x2="250.52" y2="224.28"/><line class="cls-2" x1="328.11" y1="211.35" x2="328.11" y2="224.28"/><line class="cls-2" x1="126.76" y1="279.7" x2="126.76" y2="567.87"/><line class="cls-2" x1="204.34" y1="279.7" x2="204.34" y2="567.87"/><line class="cls-3" x1="289.31" y1="977.37" x2="289.31" y2="82.42"/><line class="cls-3" x1="90.96" y1="856.03" x2="376.83" y2="856.03"/><line class="cls-2" x1="233.9" y1="808.01" x2="220.97" y2="808.01"/><line class="cls-2" x1="233.9" y1="904.06" x2="220.97" y2="904.06"/><line class="cls-2" x1="233.9" y1="519.84" x2="220.97" y2="519.84"/><line class="cls-2" x1="233.9" y1="615.89" x2="220.97" y2="615.89"/><line class="cls-2" x1="233.9" y1="231.67" x2="220.97" y2="231.67"/><line class="cls-2" x1="233.9" y1="327.72" x2="220.97" y2="327.72"/><line class="cls-2" x1="357.66" y1="107.9" x2="344.73" y2="107.9"/><line class="cls-2" x1="357.66" y1="203.96" x2="344.73" y2="203.96"/><line class="cls-3" x1="84.5" y1="567.87" x2="370.36" y2="567.87"/><line class="cls-3" x1="208.26" y1="155.93" x2="494.13" y2="155.93"/><path class="cls-1" d="M124.3,224.28H221a0,0,0,0,1,0,0V335.11a0,0,0,0,1,0,0H110.13a0,0,0,0,1,0,0V238.45A14.17,14.17,0,0,1,124.3,224.28Z"/><line class="cls-3" x1="84.5" y1="279.7" x2="370.36" y2="279.7"/><line class="cls-3" x1="165.55" y1="988.67" x2="165.55" y2="170.18"/></g><g id="DIMENSION"><g id="D_49mm" data-name="D=49mm"><polyline id="base_M01e0R_Zc0o10_iF0_P_Default_s_1" data-name="base|M01e0R|Zc0o10|iF0|P|Default|s|1" class="cls-4" points="289.31 60.24 289.31 39.41 467.24 39.41 467.24 101.54"/></g><g id="D_34mm" data-name="D=34mm"><polyline id="base_M01e0R_Zc0o10_iF0_P_Default_s_1-2" data-name="base|M01e0R|Zc0o10|iF0|P|Default|s|1" class="cls-4" points="165.55 166.27 165.55 39.41 289.31 39.41 289.31 51.36"/></g><g id="D_30mm" data-name="D=30mm"><polyline id="base_M01e0R_Zc0o10_iF0_P_Default_s_1-3" data-name="base|M01e0R|Zc0o10|iF0|P|Default|s|1" class="cls-4" points="90.96 856.03 44.31 856.03 44.31 955.79 90.96 955.79"/></g><g id="D_30mm-2" data-name="D=30mm"><polyline id="base_M01e0R_Zc0o10_iF0_P_Default_s_1-4" data-name="base|M01e0R|Zc0o10|iF0|P|Default|s|1" class="cls-4" points="90.96 567.87 44.31 567.87 44.31 856.03 90.96 856.03"/></g><g id="D_30mm-3" data-name="D=30mm"><polyline id="base_M01e0R_Zc0o10_iF0_P_Default_s_1-5" data-name="base|M01e0R|Zc0o10|iF0|P|Default|s|1" class="cls-4" points="90.96 279.7 44.31 279.7 44.31 567.87 90.96 567.87"/></g><g id="D_30mm-4" data-name="D=30mm"><polyline id="base_M01e0R_Zc0o10_iF0_P_Default_s_1-6" data-name="base|M01e0R|Zc0o10|iF0|P|Default|s|1" class="cls-4" points="90.96 155.93 44.31 155.93 44.31 279.7 90.96 279.7"/></g><text class="cls-5" transform="translate(0 911.45)">L1</text><text class="cls-5" transform="translate(0 711.95)">L2</text><text class="cls-5" transform="translate(0 423.78)">L3</text><text class="cls-5" transform="translate(0 217.81)">L5</text><text class="cls-5" transform="translate(220.97 27.53)">L4</text><text class="cls-5" transform="translate(378.28 27.53)">L6</text></g></svg>