<svg xmlns="http://www.w3.org/2000/svg" viewBox="0 0 1012.5 754.97"><defs><style>.cls-1{fill:#fff;}.cls-1,.cls-2,.cls-3{stroke:#231815;}.cls-1,.cls-2,.cls-3,.cls-4{stroke-miterlimit:10;stroke-width:2px;}.cls-2,.cls-3,.cls-4{fill:none;}.cls-3{stroke-dasharray:46 10 1 10;}.cls-4{stroke:#98a8a8;}.cls-5{font-size:24px;fill:#231815;font-family:AdobeSongStd-Light-GBpc-EUC-H, Adobe Song Std;}</style></defs><title>industry</title><g id="图层_1" data-name="图层 1"><rect class="cls-1" x="77.87" y="687.36" width="141.73" height="28.35"/><polygon class="cls-2" points="205.43 573.97 92.04 573.97 77.87 687.36 219.6 687.36 205.43 573.97"/><rect class="cls-2" x="99.13" y="562.63" width="99.21" height="11.34"/><rect class="cls-2" x="92.04" y="534.29" width="113.39" height="28.35"/><line class="cls-2" x1="205.43" y1="534.29" x2="232.45" y2="428.63"/><line class="cls-2" x1="92.04" y1="534.29" x2="152.49" y2="400.57"/><path class="cls-2" d="M447.52,580.58A42.52,42.52,0,1,1,405,538.06,42.81,42.81,0,0,1,447.52,580.58Z" transform="translate(-213.75 -162.51)"/><path class="cls-2" d="M447.52,353.81a42.52,42.52,0,1,1-81.28-17.5c.58-1.28,1.22-2.53,1.91-3.73a42.53,42.53,0,0,1,79.37,21.23Z" transform="translate(-213.75 -162.51)"/><line class="cls-2" x1="148.73" y1="418.07" x2="148.73" y2="191.29"/><line class="cls-2" x1="233.77" y1="418.07" x2="233.77" y2="191.29"/><line class="cls-2" x1="233.77" y1="191.29" x2="290.46" y2="191.29"/><line class="cls-2" x1="290.46" y1="106.25" x2="290.46" y2="191.29"/><line class="cls-2" x1="191.25" y1="106.25" x2="290.46" y2="106.25"/><line class="cls-2" x1="191.25" y1="106.25" x2="154.4" y2="170.06"/><rect class="cls-2" x="297.81" y="106.25" width="25" height="85.04"/><line class="cls-2" x1="322.81" y1="191.29" x2="519.32" y2="177.05"/><line class="cls-2" x1="322.81" y1="106.25" x2="519.32" y2="120.5"/><line class="cls-2" x1="297.64" y1="106.46" x2="290.63" y2="114.96"/><line class="cls-2" x1="298.04" y1="191.54" x2="290.23" y2="183.04"/><path class="cls-2" d="M733.07,283a28.35,28.35,0,0,1,0,56.54c-.69.05-1.38.07-2.08.07a28.35,28.35,0,1,1,0-56.69C731.69,282.94,732.38,283,733.07,283Z" transform="translate(-213.75 -162.51)"/><line class="cls-2" x1="573.93" y1="170.03" x2="573.93" y2="127.51"/><line class="cls-2" x1="535.98" y1="127.51" x2="573.93" y2="127.51"/><line class="cls-2" x1="535.98" y1="170.03" x2="573.93" y2="170.03"/><line class="cls-3" x1="191.25" y1="474.76" x2="191.25" y2="361.37"/><line class="cls-3" x1="148.73" y1="715.7" x2="148.73" y2="527.04"/><line class="cls-3" x1="191.25" y1="247.99" x2="191.25" y2="134.6"/><line class="cls-3" x1="134.56" y1="191.29" x2="247.94" y2="191.29"/><line class="cls-3" x1="134.56" y1="418.07" x2="247.94" y2="418.07"/><line class="cls-3" x1="800.67" y1="418.07" x2="1012.5" y2="418.07"/><line class="cls-3" x1="823.67" y1="191.29" x2="1012.5" y2="191.29"/><line class="cls-3" x1="134.56" y1="148.77" x2="442" y2="148.77"/><line class="cls-3" x1="517.24" y1="205.47" x2="517.24" y2="92.08"/><line class="cls-3" x1="460.54" y1="148.77" x2="573.93" y2="148.77"/><line class="cls-3" x1="901.59" y1="205.47" x2="901.59" y2="92.08"/><line class="cls-3" x1="844.89" y1="148.77" x2="958.28" y2="148.77"/><line class="cls-2" x1="988.06" y1="419.01" x2="988.06" y2="191.29"/><line class="cls-2" x1="961.94" y1="191.29" x2="961.94" y2="419.01"/><circle class="cls-2" cx="901.59" cy="148.77" r="42.52"/></g><g id="图层_3" data-name="图层 3"><rect class="cls-1" x="786.5" y="687.36" width="141.73" height="28.35"/><polygon class="cls-2" points="914.06 573.97 800.67 573.97 786.5 687.36 928.23 687.36 914.06 573.97"/><rect class="cls-2" x="807.76" y="562.63" width="99.21" height="11.34"/><rect class="cls-2" x="800.67" y="534.29" width="113.39" height="28.35"/><line class="cls-3" x1="857.37" y1="715.7" x2="857.37" y2="271.98"/><rect class="cls-2" x="814.85" y="375.55" width="135.43" height="85.04"/><rect class="cls-2" x="956.5" y="375.55" width="37" height="85.04"/><rect class="cls-2" x="956.5" y="148.77" width="37" height="85.04"/><line class="cls-2" x1="804.95" y1="382.63" x2="804.95" y2="453.5"/><line class="cls-2" x1="956.5" y1="382.63" x2="956.5" y2="453.5"/><line class="cls-2" x1="814.85" y1="375.55" x2="804.95" y2="382.63"/><line class="cls-2" x1="814.85" y1="460.58" x2="804.95" y2="453.5"/><line class="cls-2" x1="950.27" y1="382.63" x2="956.5" y2="382.63"/><line class="cls-2" x1="950.27" y1="453.5" x2="956.5" y2="453.5"/><line class="cls-2" x1="949.75" y1="228.73" x2="956.5" y2="228.73"/><line class="cls-2" x1="949.75" y1="154.94" x2="956.5" y2="154.94"/><polyline class="cls-2" points="828.37 418.06 828.37 534.29 886.37 534.29 886.37 418.06"/><line class="cls-2" x1="828.37" y1="418.07" x2="839.25" y2="407.11"/><line class="cls-2" x1="886.37" y1="418.07" x2="875.48" y2="407.11"/><line class="cls-2" x1="949.75" y1="148.77" x2="949.75" y2="233.81"/><line class="cls-2" x1="949.75" y1="233.81" x2="859.07" y2="233.81"/><line class="cls-2" x1="859.07" y1="233.81" x2="859.07" y2="142.38"/></g><g id="DIMENSION"><g id="D_16mm" data-name="D=16mm"><polyline id="base_M01e0R_Zc0o10_iF0_P_CustomSet_s_1" data-name="base|M01e0R|Zc0o10|iF0|P|(CustomSet)|s|1" class="cls-4" points="857.37 305.15 857.37 30.04 901.59 30.04 901.59 40.34"/></g><g id="D_20mm" data-name="D=20mm"><polyline id="base_M01e0R_Zc0o10_iF0_P_CustomSet_s_1-2" data-name="base|M01e0R|Zc0o10|iF0|P|(CustomSet)|s|1" class="cls-4" points="517.24 45.63 517.24 30.04 573.93 30.04 573.93 124.51"/></g><g id="D_115mm" data-name="D=115mm"><polyline id="base_M01e0R_Zc0o10_iF0_P_CustomSet_s_1-3" data-name="base|M01e0R|Zc0o10|iF0|P|(CustomSet)|s|1" class="cls-4" points="191.25 148.77 191.25 30.04 517.24 30.04 517.24 46.83"/></g><g id="D_15mm" data-name="D=15mm"><polyline id="base_M01e0R_Zc0o10_iF0_P_CustomSet_s_1-4" data-name="base|M01e0R|Zc0o10|iF0|P|(CustomSet)|s|1" class="cls-4" points="122.26 148.77 33.04 148.77 33.04 191.29 122.26 191.29"/></g><g id="D_80mm" data-name="D=80mm"><polyline id="base_M01e0R_Zc0o10_iF0_P_CustomSet_s_1-5" data-name="base|M01e0R|Zc0o10|iF0|P|(CustomSet)|s|1" class="cls-4" points="124.6 191.29 33.04 191.29 33.04 418.06 124.6 418.06"/></g><g id="D_95mm" data-name="D=95mm"><polyline id="base_M01e0R_Zc0o10_iF0_P_CustomSet_s_1-6" data-name="base|M01e0R|Zc0o10|iF0|P|(CustomSet)|s|1" class="cls-4" points="127.45 418.06 33.04 418.06 33.04 715.7 43.41 715.7"/></g><g id="D_15mm-2" data-name="D=15mm"><polyline id="base_M01e0R_Zc0o10_iF0_P_CustomSet_s_1-7" data-name="base|M01e0R|Zc0o10|iF0|P|(CustomSet)|s|1" class="cls-4" points="148.73 718.7 148.73 725.7 191.25 725.7 191.25 477.76"/></g><text class="cls-5" transform="translate(161 748.88)">L1</text><text class="cls-5" transform="translate(0 562.63)">L2</text><text class="cls-5" transform="translate(0 304.68)">L3</text><text class="cls-5" transform="translate(0 177.12)">L5</text><text class="cls-5" transform="translate(349 21.12)">L6</text><text class="cls-5" transform="translate(530 21.12)">L7</text><text class="cls-5" transform="translate(866 21.12)">L4</text></g></svg>